<?xml version="1.0" encoding="UTF-8"?>
<svg id="Layer_2" data-name="Layer 2" xmlns="http://www.w3.org/2000/svg" width="100.37" height="100.52" viewBox="0 0 100.37 100.52">
  <defs>
    <style>
      .cls-1, .cls-2, .cls-3, .cls-4, .cls-5, .cls-6 {
        stroke-width: 0px;
      }

      .cls-1, .cls-4 {
        fill: #fefefe;
      }

      .cls-1, .cls-6 {
        fill-rule: evenodd;
      }

      .cls-2 {
        fill: #a6234e;
      }

      .cls-3 {
        fill: #fd6a72;
      }

      .cls-5 {
        fill: #0085f9;
      }
    </style>
  </defs>
  <g id="Layer_2-2" data-name="Layer 2">
    <path class="cls-1" d="m32.75,2.77s-11.88-3.87-9.48,22.79,32.81,25.67,32.81,25.67h4.19s14.59,13.65,14.59,13.65l2.53-14.44,12.93.79s6.66-7,7.06-16.47,0-27.59,0-27.59l-8.53-4.59-56.09.2Z"/>
    <path class="cls-6" d="m87,0h-53.48c-7.38,0-13.37,5.99-13.37,13.37v26.74c0,7.38,5.99,13.37,13.37,13.37h25.63l15.26,15.26c.76.76,1.92.99,2.91.58,1-.41,1.65-1.39,1.65-2.47v-13.37h8.02c7.38,0,13.37-5.99,13.37-13.37V13.37c0-7.38-5.99-13.37-13.37-13.37Zm8.02,40.11c0,4.43-3.59,8.02-8.02,8.02h-10.7c-1.48,0-2.67,1.2-2.67,2.67v9.59l-11.48-11.48c-.5-.5-1.18-.78-1.89-.78h-26.74c-4.43,0-8.02-3.59-8.02-8.02V13.37c0-4.43,3.59-8.02,8.02-8.02h53.48c4.43,0,8.02,3.59,8.02,8.02v26.74Z"/>
    <g>
      <ellipse class="cls-3" cx="28.04" cy="51.23" rx="28.04" ry="26.69"/>
      <ellipse class="cls-3" cx="28.29" cy="84.83" rx="17.99" ry="15.68"/>
      <ellipse class="cls-4" cx="31.08" cy="50.44" rx="19.91" ry="21.01"/>
      <rect class="cls-5" x="30.45" y="41.48" width="4.61" height="19.49" rx="1.96" ry="1.96"/>
      <rect class="cls-5" x="39.88" y="41.48" width="4.61" height="19.49" rx="1.96" ry="1.96"/>
      <path class="cls-3" d="m1.66,41.95s3.54-16.7,7.31-20.69,6.71-2.52,7.02-1.36.94,5.45,1.47,5.87S1.66,41.95,1.66,41.95Z"/>
      <path class="cls-2" d="m14.6,74.66s6.48,3.9,15.85,2.12c-2.41,1.8-2.88,2.13-18.81,2.12,1.22-2.12,1.84-2.88,2.96-4.24Z"/>
    </g>
  </g>
</svg>