<?xml version="1.0" encoding="UTF-8"?>
<svg id="Layer_2" data-name="Layer 2" xmlns="http://www.w3.org/2000/svg" width="100.37" height="100.52" viewBox="0 0 100.37 100.52">
  <defs>
    <style>
      .cls-1 {
        fill: #a6234e;
      }

      .cls-1, .cls-2, .cls-3, .cls-4 {
        stroke-width: 0px;
      }

      .cls-2 {
        fill: #fd6a72;
      }

      .cls-3 {
        fill: #0085f9;
      }

      .cls-4 {
        fill-rule: evenodd;
      }
    </style>
  </defs>
  <g id="Layer_2-2" data-name="Layer 2">
    <path class="cls-4" d="m87,0h-53.48c-7.38,0-13.37,5.99-13.37,13.37v19.52c1.63-1.13,3.43-2.01,5.35-2.6V13.37c0-4.43,3.59-8.02,8.02-8.02h53.48c4.43,0,8.02,3.59,8.02,8.02v26.74c0,4.43-3.59,8.02-8.02,8.02h-10.7c-1.48,0-2.67,1.2-2.67,2.67v9.59l-11.48-11.48c-.5-.5-1.18-.78-1.89-.78h-9.4c.08.76.13,1.53.13,2.31,0,1.03-.09,2.04-.23,3.03h8.4l15.26,15.26c.76.76,1.92.99,2.91.58,1-.41,1.65-1.39,1.65-2.47v-13.37h8.02c7.38,0,13.37-5.99,13.37-13.37V13.37c0-7.38-5.99-13.37-13.37-13.37Z"/>
    <g>
      <path class="cls-2" d="m56.08,51.23c0-14.74-12.55-26.69-28.04-26.69-4.03,0-7.85.81-11.31,2.27.52-.6.8-.99.73-1.05-.52-.42-1.15-4.72-1.47-5.87-.31-1.15-3.25-2.62-7.02,1.36-3.77,3.98-7.31,20.69-7.31,20.69,0,0,.06-.06.15-.15-1.16,2.93-1.81,6.11-1.81,9.43,0,10.11,5.91,18.9,14.61,23.43-2.68,2.74-4.31,6.29-4.31,10.17,0,8.66,8.05,15.68,17.99,15.68s17.99-7.02,17.99-15.68c0-3.97-1.7-7.58-4.49-10.34,8.53-4.58,14.3-13.28,14.3-23.26Zm-25,20.23c-11,0-19.91-9.41-19.91-21.01s8.92-21.01,19.91-21.01,19.91,9.41,19.91,21.01-8.92,21.01-19.91,21.01Z"/>
      <rect class="cls-3" x="30.45" y="41.48" width="4.61" height="19.49" rx="1.96" ry="1.96"/>
      <rect class="cls-3" x="39.88" y="41.48" width="4.61" height="19.49" rx="1.96" ry="1.96"/>
      <path class="cls-1" d="m14.6,74.66s6.48,3.9,15.85,2.12c-2.41,1.8-2.88,2.13-18.81,2.12,1.22-2.12,1.84-2.88,2.96-4.24Z"/>
    </g>
  </g>
</svg>